<svg xmlns="http://www.w3.org/2000/svg" width="24" height="24" viewBox="0 0 24 24">
    <g fill="none" fill-rule="evenodd">
        <g>
            <path d="M0 0H23.998V23.998H0z"/>
            <path d="M0 0H23.998V23.998H0z"/>
            <path fill="#F9A722" d="M20.907 4.097c-.097-.097-.247-.124-.374-.068l-16.341 7.23c-.131.058-.208.192-.19.33.02.138.13.248.273.27l7.33 1.185.837 6.677c.018.139.128.25.272.274.018.003.037.005.055.005.124 0 .24-.067.295-.176l7.902-15.366c.062-.12.038-.265-.06-.361z" transform="matrix(-1 0 0 1 25 0)"/>
        </g>
    </g>
</svg>